<svg width="24" height="24" viewBox="0 0 24 24" fill="none" xmlns="http://www.w3.org/2000/svg">
<path fill-rule="evenodd" clip-rule="evenodd" d="M6.96985 2.47032C7.11047 2.32987 7.3011 2.25098 7.49985 2.25098C7.6986 2.25098 7.88922 2.32987 8.02985 2.47032L12.5298 6.97032C12.6623 7.11249 12.7345 7.30054 12.731 7.49484C12.7276 7.68914 12.6489 7.87453 12.5115 8.01194C12.3741 8.14935 12.1887 8.22806 11.9944 8.23149C11.8001 8.23492 11.612 8.1628 11.4698 8.03032L8.24985 4.81032V16.5003C8.24985 16.6992 8.17083 16.89 8.03018 17.0306C7.88952 17.1713 7.69876 17.2503 7.49985 17.2503C7.30093 17.2503 7.11017 17.1713 6.96952 17.0306C6.82886 16.89 6.74985 16.6992 6.74985 16.5003V4.81032L3.52985 8.03032C3.38767 8.1628 3.19963 8.23492 3.00532 8.23149C2.81102 8.22806 2.62564 8.14935 2.48822 8.01194C2.35081 7.87453 2.2721 7.68914 2.26867 7.49484C2.26524 7.30054 2.33737 7.11249 2.46985 6.97032L6.96985 2.47032ZM16.4998 6.75032C16.6988 6.75032 16.8895 6.82933 17.0302 6.96999C17.1708 7.11064 17.2498 7.3014 17.2498 7.50032V19.1903L20.4698 15.9703C20.5385 15.8966 20.6213 15.8375 20.7133 15.7965C20.8053 15.7555 20.9046 15.7335 21.0053 15.7317C21.106 15.7299 21.2061 15.7485 21.2994 15.7862C21.3928 15.8239 21.4777 15.8801 21.5489 15.9513C21.6201 16.0225 21.6762 16.1073 21.714 16.2007C21.7517 16.2941 21.7702 16.3941 21.7684 16.4948C21.7667 16.5955 21.7446 16.6949 21.7036 16.7869C21.6626 16.8789 21.6035 16.9617 21.5298 17.0303L17.0298 21.5303C16.8892 21.6708 16.6986 21.7497 16.4998 21.7497C16.3011 21.7497 16.1105 21.6708 15.9698 21.5303L11.4698 17.0303C11.3962 16.9617 11.3371 16.8789 11.2961 16.7869C11.2551 16.6949 11.233 16.5955 11.2313 16.4948C11.2295 16.3941 11.248 16.2941 11.2857 16.2007C11.3234 16.1073 11.3796 16.0225 11.4508 15.9513C11.522 15.8801 11.6069 15.8239 11.7002 15.7862C11.7936 15.7485 11.8937 15.7299 11.9944 15.7317C12.0951 15.7335 12.1944 15.7555 12.2864 15.7965C12.3784 15.8375 12.4612 15.8966 12.5298 15.9703L15.7498 19.1903V7.50032C15.7498 7.3014 15.8289 7.11064 15.9695 6.96999C16.1102 6.82933 16.3009 6.75032 16.4998 6.75032Z" fill="black"/>
</svg>
