<svg width="38" height="38" viewBox="0 0 38 38" fill="none" xmlns="http://www.w3.org/2000/svg">
<rect width="38" height="38" rx="10" fill="black"/>
<path d="M13.0909 31H5.55682V7.72727H13.3295C15.6098 7.72727 17.5682 8.19318 19.2045 9.125C20.8409 10.0492 22.0947 11.3788 22.9659 13.1136C23.8447 14.8409 24.2841 16.9129 24.2841 19.3295C24.2841 21.7538 23.8409 23.8371 22.9545 25.5795C22.0758 27.322 20.803 28.6629 19.1364 29.6023C17.4697 30.5341 15.4545 31 13.0909 31ZM9.06818 27.9318H12.8977C14.6705 27.9318 16.1439 27.5985 17.3182 26.9318C18.4924 26.2576 19.3712 25.2841 19.9545 24.0114C20.5379 22.7311 20.8295 21.1705 20.8295 19.3295C20.8295 17.5038 20.5379 15.9545 19.9545 14.6818C19.3788 13.4091 18.5189 12.4432 17.375 11.7841C16.2311 11.125 14.8106 10.7955 13.1136 10.7955H9.06818V27.9318Z" fill="white"/>
<path d="M29.1477 31.2159C28.5265 31.2159 27.9924 30.9962 27.5455 30.5568C27.0985 30.1098 26.875 29.572 26.875 28.9432C26.875 28.322 27.0985 27.7917 27.5455 27.3523C27.9924 26.9053 28.5265 26.6818 29.1477 26.6818C29.7689 26.6818 30.303 26.9053 30.75 27.3523C31.197 27.7917 31.4205 28.322 31.4205 28.9432C31.4205 29.3598 31.3144 29.7424 31.1023 30.0909C30.8977 30.4318 30.625 30.7045 30.2841 30.9091C29.9432 31.1136 29.5644 31.2159 29.1477 31.2159Z" fill="#CF2020"/>
</svg>
